<svg height="436.40909" width="688.34375" xmlns="http://www.w3.org/2000/svg" xmlns:xlink="http://www.w3.org/1999/xlink"><linearGradient id="a"><stop offset="0" stop-color="#ffef00"/><stop offset=".68863374" stop-color="#fff"/><stop offset="1" stop-color="#ffef00"/></linearGradient><linearGradient id="b" gradientTransform="matrix(0 1 -1 0 841.22978 186.75)" gradientUnits="userSpaceOnUse" x1="331.64062" x2="331.64062" y1="464.39511" y2="479.42657"><stop offset="0" stop-color="#ffef00"/><stop offset=".42203853" stop-color="#fff"/><stop offset="1" stop-color="#ffef00"/></linearGradient><linearGradient id="c" gradientUnits="userSpaceOnUse" x1="425.55324" x2="425.55324" y1="465.063913" y2="480.095373"><stop offset="0" stop-color="#ffef00"/><stop offset=".65592295" stop-color="#fff"/><stop offset="1" stop-color="#ffef00"/></linearGradient><linearGradient id="d" gradientTransform="matrix(.6368253 -.528491 .528491 .6368253 73.775489 182.03599)" gradientUnits="userSpaceOnUse" x1="230.4989" x2="208.1467" xlink:href="#a" y1="618.01642" y2="645.47314"/><linearGradient id="e" gradientTransform="matrix(.528491 .6368253 -.6368253 .528491 659.86259 189.73283)" gradientUnits="userSpaceOnUse" x1="230.4989" x2="208.1467" xlink:href="#a" y1="618.01642" y2="645.47314"/><g transform="matrix(.9012639 0 0 .9012639 11.084453 -30.722588)"><path d="m25.40625 494.40237v-68.48016h688.34375v68.48016h-688.34375z" fill="#8ae234" fill-rule="evenodd" opacity=".290221"/><path d="m566.79028 57.993286h146.94563v182.30095h-146.94563z" fill="#fcaf3e" fill-rule="evenodd" opacity=".290221"/><path d="m25.41165 57.993286h146.94563v182.30095h-146.94563z" fill="#fcaf3e" fill-rule="evenodd" opacity=".290221"/><g fill-rule="evenodd" transform="translate(0 -274.00388)"><path d="m376.82353 478.7929h-15v173.63762h15z" fill="url(#b)" stroke="#ffe700"/><g stroke="#fff" stroke-linejoin="round"><path d="m370.16482 543.90879v220.85531l43.77332-81.14764v-139.72913l-43.77332.02146z" fill="#729fcf" transform="matrix(.4684436 0 0 .4684436 231.05222 262.25304)"/><path d="m478.43479 442.98846 15.76822-20.38578h-178.60214l-59.16066 20.38578h221.99458z" fill="#1d437b" stroke-width=".468444"/><path d="m478.41156 442.97322v74.04279l15.76822-35.22598v-59.2026l-15.76822 20.38579z" fill="#729fcf" stroke-width=".468444"/></g><path d="m204.06887 465.07505v15h332.32233v-15z" fill="url(#c)" stroke="#ffe700"/><path d="m256.44021 442.98852v74.01408h74.01408v103.51138h73.99945v-103.51138h.01464 73.99945v-74.01408h-73.99945-74.01409-74.01408z" fill="#3465a4" opacity=".608309" stroke="#fff" stroke-width=".936887"/><path d="m515.8654 451.85436 5.54783 5.71318 14.82598 15.3544-15.33789 14.84587-5.72969 5.52793 7.7027-2.05709 58.19602-15.5631 7.007-1.88302-6.92931-2.11342-57.65506-17.51785-7.62758-2.3069z" fill="url(#d)" stroke="#ffe700"/><path d="m390.04422 631.82275-5.71318 5.54783-15.3544 14.82598-14.84587-15.33789-5.52793-5.72969 2.05709 7.7027 15.5631 58.19602 1.88302 7.007 2.11342-6.92931 17.51785-57.65506 2.3069-7.62758z" fill="url(#e)" stroke="#ffe700"/></g><g font-family="Sans"><text font-size="50" x="240.5457" xml:space="preserve" y="119.77298"><tspan x="240.5457" y="119.77298"><tspan fill="#f00">tee</tspan><tspan font-style="italic"> file.txt</tspan></tspan></text><text font-size="50" text-anchor="middle" x="639.14008" y="119.77298"><tspan x="639.14008" y="119.77298">less</tspan></text><text font-size="50" text-anchor="middle" x="375.65048" y="476.73306"><tspan x="375.65048" y="476.73306">file.txt</tspan></text><text fill="#a40000" font-size="50" font-weight="bold" text-anchor="middle" x="191.94887" y="114.34085"><tspan x="191.94887" y="114.34085">|</tspan></text><text fill="#a40000" font-size="50" font-weight="bold" text-anchor="middle" x="547.19922" y="114.34085"><tspan x="547.19922" y="114.34085">|</tspan></text><text font-size="50" text-anchor="middle" x="98.860054" y="119.77298"><tspan x="98.860054" y="119.77298">ls -l</tspan></text><text fill="#204a87" font-size="31.753664" font-weight="bold" text-anchor="middle" x="97.31414" y="210.76097"><tspan x="97.31414" y="210.76097">stdout</tspan></text><text fill="#204a87" font-size="31.753664" font-weight="bold" text-anchor="middle" x="645.3219" y="210.76097"><tspan x="645.3219" y="210.76097">stdin</tspan></text></g></g></svg>